<svg xmlns="http://www.w3.org/2000/svg" xmlns:xlink="http://www.w3.org/1999/xlink" width="100" zoomAndPan="magnify" viewBox="0 0 75 74.999997" height="100" preserveAspectRatio="xMidYMid meet" version="1.2"><defs><clipPath id="efa8468ec5"><path d="M 7.5 7.5 L 67 7.5 L 67 67 L 7.5 67 Z M 7.5 7.5 "/></clipPath></defs><g id="20424f9725"><rect x="0" width="75" y="0" height="74.999997" style="fill:#ffffff;fill-opacity:1;stroke:none;"/><rect x="0" width="75" y="0" height="74.999997" style="fill:#155332;fill-opacity:1;stroke:none;"/><g clip-rule="nonzero" clip-path="url(#efa8468ec5)"><path style=" stroke:none;fill-rule:nonzero;fill:#f2f5d4;fill-opacity:1;" d="M 40.246094 44.210938 L 46.367188 50.328125 C 45.4375 52.121094 45.34375 53.898438 46.324219 54.878906 L 57.496094 66.054688 C 58.90625 67.464844 61.972656 66.691406 64.332031 64.328125 C 66.691406 61.96875 67.464844 58.90625 66.054688 57.496094 L 54.882812 46.320312 C 53.898438 45.339844 52.121094 45.433594 50.335938 46.363281 L 44.210938 40.242188 Z M 28.488281 7.5 C 16.898438 7.5 7.5 16.898438 7.5 28.488281 C 7.5 40.078125 16.898438 49.476562 28.488281 49.476562 C 40.078125 49.476562 49.476562 40.078125 49.476562 28.488281 C 49.476562 16.898438 40.078125 7.5 28.488281 7.5 Z M 28.488281 44.535156 C 19.625 44.535156 12.4375 37.351562 12.4375 28.488281 C 12.4375 19.625 19.625 12.4375 28.488281 12.4375 C 37.351562 12.4375 44.535156 19.625 44.535156 28.488281 C 44.535156 37.351562 37.351562 44.535156 28.488281 44.535156 Z M 28.488281 44.535156 "/></g></g></svg>